<?xml version="1.0" standalone="no"?>
<!DOCTYPE svg PUBLIC "-//W3C//DTD SVG 20010904//EN"
 "http://www.w3.org/TR/2001/REC-SVG-20010904/DTD/svg10.dtd">
<svg version="1.0" xmlns="http://www.w3.org/2000/svg"
 width="1200.000000pt" height="1200.000000pt" viewBox="0 0 1200.000000 1200.000000"
 preserveAspectRatio="xMidYMid meet">
<metadata>
Created by potrace 1.14, written by Peter Selinger 2001-2017
</metadata>
<g transform="translate(0.000000,1200.000000) scale(0.100000,-0.100000)"
fill="#000000" stroke="none">
<path d="M5838 8795 c-2 -1 -25 -5 -53 -8 -84 -10 -129 -17 -160 -24 -16 -3
-39 -7 -50 -9 -11 -2 -40 -8 -65 -15 -25 -6 -49 -12 -55 -13 -115 -27 -365
-131 -481 -202 -18 -10 -58 -35 -90 -54 -33 -19 -63 -38 -69 -42 -10 -8 -68
-53 -118 -91 -16 -12 -44 -36 -62 -54 -18 -17 -41 -35 -49 -40 -15 -8 54 -82
297 -319 7 -7 50 -51 96 -98 46 -47 87 -86 91 -86 5 0 32 20 62 44 167 136
390 242 593 282 11 2 31 6 45 9 85 19 303 25 415 12 33 -4 96 -16 140 -27 44
-11 89 -22 100 -25 47 -11 235 -94 289 -128 74 -46 161 -108 200 -142 16 -14
33 -25 38 -25 15 0 500 492 491 499 -4 4 -37 32 -73 62 -36 30 -67 56 -70 59
-3 3 -27 21 -55 40 -27 19 -51 38 -53 42 -2 4 -8 8 -14 8 -5 0 -28 13 -51 29
-68 46 -265 145 -362 180 -49 18 -99 37 -110 41 -24 9 -169 48 -205 54 -14 3
-34 7 -46 10 -12 2 -45 8 -75 11 -30 4 -65 10 -79 12 -28 5 -407 13 -412 8z"/>
<path d="M5856 7724 c-48 -7 -123 -25 -165 -40 -84 -29 -221 -98 -251 -126
-11 -10 -22 -18 -26 -18 -4 0 -23 -15 -44 -34 l-37 -34 253 -253 c140 -140
254 -248 254 -241 0 6 7 12 15 12 8 0 15 4 15 9 0 10 89 34 130 36 24 1 93
-11 115 -19 6 -2 20 -7 33 -11 12 -4 22 -11 22 -16 0 -31 57 18 276 237 l246
246 -30 27 c-16 14 -36 31 -44 36 -77 52 -109 71 -167 100 -69 35 -174 71
-228 79 -17 2 -37 7 -43 11 -21 13 -236 12 -324 -1z"/>
<path d="M0 7294 l0 -352 575 1 574 2 0 -640 c0 -352 1 -749 1 -882 l0 -242
43 -12 c23 -7 47 -13 52 -15 32 -6 104 -26 125 -34 14 -5 36 -11 50 -13 14 -2
32 -7 40 -10 15 -6 202 -57 230 -62 8 -2 15 -4 15 -5 0 -1 7 -3 15 -5 8 -2 49
-13 90 -25 41 -11 83 -23 93 -25 10 -2 50 -13 90 -24 93 -25 229 -62 242 -65
6 -2 17 -6 25 -9 16 -6 395 -108 420 -112 8 -2 15 -4 15 -5 0 -1 7 -3 15 -5 8
-2 74 -19 145 -39 72 -20 139 -39 150 -41 11 -3 103 -28 205 -56 102 -28 194
-53 205 -56 39 -8 50 -11 50 -13 0 -1 7 -3 15 -5 8 -2 58 -16 110 -30 52 -15
103 -28 113 -31 30 -7 51 -13 107 -29 30 -9 62 -17 70 -19 13 -3 15 -58 17
-415 0 -227 4 -415 7 -418 3 -3 172 -6 375 -6 l370 0 0 -106 c0 -58 0 -148 0
-198 l1 -93 350 0 350 0 1 78 c0 42 0 131 0 198 l0 121 649 0 649 1 0 -147 c0
-80 0 -170 0 -198 l1 -53 350 0 350 0 0 23 c1 12 1 101 1 198 l1 176 369 0
c203 0 372 3 375 6 3 3 6 193 6 422 0 229 2 414 5 412 2 -3 35 4 71 14 37 11
74 22 82 24 17 3 94 24 225 61 50 13 97 26 105 28 8 2 51 14 95 26 44 12 96
26 115 31 19 5 42 11 50 14 95 26 179 49 245 66 44 12 87 23 95 26 8 2 15 4
15 3 0 -1 12 3 28 9 15 6 38 13 50 15 12 2 56 14 97 26 41 11 82 23 90 25 8 1
42 10 75 19 33 9 68 19 78 21 9 3 25 7 35 10 14 3 113 31 292 80 56 15 247 67
255 68 6 2 16 6 23 10 6 5 12 6 12 3 0 -3 11 -1 25 4 14 5 76 23 137 39 121
32 402 108 431 117 16 5 17 56 17 885 l0 879 53 0 c28 1 287 1 575 1 l522 0
-2 352 -3 352 -1498 0 -1497 0 0 -35 c0 -19 1 -48 1 -65 1 -16 1 -37 0 -45 -3
-52 0 -123 5 -131 3 -5 0 -9 -7 -9 -9 0 -9 -3 0 -14 8 -9 8 -16 2 -20 -5 -4
-6 -18 -2 -34 4 -15 5 -38 1 -52 -3 -13 -3 -46 0 -72 4 -28 2 -48 -3 -48 -5 0
-4 -6 2 -14 8 -9 8 -16 2 -20 -5 -4 -6 -18 -2 -34 4 -15 5 -38 1 -52 -16 -62
-50 -58 523 -59 287 0 545 0 573 -1 l52 0 0 -320 0 -319 -4148 -1 -4148 0 0
320 -1 320 47 1 c26 0 283 0 572 1 350 0 527 3 531 10 4 6 3 23 -1 38 -4 15
-4 33 0 40 4 7 4 25 0 40 -4 15 -5 32 -1 39 4 6 5 33 1 59 -3 27 -3 60 1 74 4
14 3 31 -1 38 -4 7 -4 25 0 40 4 15 4 33 0 40 -4 7 -4 25 0 40 4 15 4 33 0 40
-4 7 -5 24 -1 38 4 14 4 47 1 74 -4 26 -3 48 0 48 4 0 5 10 3 23 l-4 22 -1500
0 -1499 0 0 -351z"/>
</g>
</svg>
